<svg width="15" height="15" viewBox="0 0 15 15" fill="none" xmlns="http://www.w3.org/2000/svg">
<path d="M14.4033 7.04083C14.3458 6.89251 14.2596 6.757 14.1496 6.64208L8.10792 0.600417C7.99525 0.487754 7.8615 0.398385 7.7143 0.337412C7.5671 0.276439 7.40933 0.245056 7.25 0.245056C6.92822 0.245056 6.61962 0.372883 6.39208 0.600417C6.27942 0.71308 6.19005 0.846831 6.12908 0.994033C6.0681 1.14123 6.03672 1.299 6.03672 1.45833C6.03672 1.78011 6.16455 2.08872 6.39208 2.31625L10.3796 6.29167H1.20833C0.887863 6.29167 0.580519 6.41897 0.353913 6.64558C0.127306 6.87219 0 7.17953 0 7.5C0 7.82047 0.127306 8.12781 0.353913 8.35442C0.580519 8.58103 0.887863 8.70833 1.20833 8.70833H10.3796L6.39208 12.6838C6.27883 12.7961 6.18894 12.9297 6.12759 13.077C6.06624 13.2242 6.03466 13.3822 6.03466 13.5417C6.03466 13.7012 6.06624 13.8591 6.12759 14.0064C6.18894 14.1536 6.27883 14.2873 6.39208 14.3996C6.50441 14.5128 6.63806 14.6027 6.7853 14.6641C6.93255 14.7254 7.09049 14.757 7.25 14.757C7.40951 14.757 7.56745 14.7254 7.7147 14.6641C7.86194 14.6027 7.99559 14.5128 8.10792 14.3996L14.1496 8.35792C14.2596 8.243 14.3458 8.10749 14.4033 7.95917C14.5242 7.66498 14.5242 7.33502 14.4033 7.04083Z" fill="#ED017F"/>
</svg>
