<svg width="27" height="21" viewBox="0 0 27 21" fill="none" xmlns="http://www.w3.org/2000/svg">
<path d="M22.2646 7.30731H21.8559L20.2596 3.32281C19.9745 2.61435 19.4841 2.00727 18.8515 1.57947C18.219 1.15167 17.4729 0.922678 16.7093 0.921891H9.04677C8.15957 0.919351 7.29898 1.2248 6.61191 1.78611C5.92483 2.34742 5.45386 3.12978 5.27938 3.99966L4.61529 7.30731H4.38542C3.36931 7.30731 2.39481 7.71096 1.67632 8.42945C0.957817 9.14795 0.554169 10.1224 0.554169 11.1386V14.9698C0.554169 15.3085 0.688718 15.6333 0.928218 15.8728C1.16772 16.1123 1.49255 16.2469 1.83125 16.2469H3.10834C3.10834 17.263 3.51198 18.2375 4.23048 18.956C4.94898 19.6745 5.92347 20.0781 6.93959 20.0781C7.9557 20.0781 8.93019 19.6745 9.64869 18.956C10.3672 18.2375 10.7708 17.263 10.7708 16.2469H15.8792C15.8792 17.263 16.2828 18.2375 17.0013 18.956C17.7198 19.6745 18.6943 20.0781 19.7104 20.0781C20.7265 20.0781 21.701 19.6745 22.4195 18.956C23.138 18.2375 23.5417 17.263 23.5417 16.2469H24.8188C25.1575 16.2469 25.4823 16.1123 25.7218 15.8728C25.9613 15.6333 26.0958 15.3085 26.0958 14.9698V11.1386C26.0958 10.1224 25.6922 9.14795 24.9737 8.42945C24.2552 7.71096 23.2807 7.30731 22.2646 7.30731V7.30731ZM14.6021 3.47606H16.7093C16.9629 3.47835 17.21 3.5561 17.4193 3.69938C17.6285 3.84267 17.7904 4.04501 17.8842 4.28062L19.0974 7.30731H14.6021V3.47606ZM7.78246 4.49772C7.84217 4.20492 8.00266 3.94232 8.23601 3.75565C8.46935 3.56897 8.76077 3.47003 9.05954 3.47606H12.0479V7.30731H7.22054L7.78246 4.49772ZM6.93959 17.524C6.687 17.524 6.44009 17.4491 6.23008 17.3087C6.02006 17.1684 5.85637 16.969 5.75971 16.7356C5.66305 16.5023 5.63776 16.2455 5.68704 15.9977C5.73632 15.75 5.85795 15.5225 6.03655 15.3439C6.21515 15.1653 6.44271 15.0436 6.69044 14.9943C6.93817 14.9451 7.19495 14.9704 7.4283 15.067C7.66166 15.1637 7.86111 15.3274 8.00144 15.5374C8.14177 15.7474 8.21667 15.9943 8.21667 16.2469C8.21667 16.5856 8.08212 16.9104 7.84262 17.1499C7.60312 17.3894 7.27829 17.524 6.93959 17.524ZM19.7104 17.524C19.4578 17.524 19.2109 17.4491 19.0009 17.3087C18.7909 17.1684 18.6272 16.969 18.5305 16.7356C18.4339 16.5023 18.4086 16.2455 18.4579 15.9977C18.5071 15.75 18.6288 15.5225 18.8074 15.3439C18.986 15.1653 19.2135 15.0436 19.4613 14.9943C19.709 14.9451 19.9658 14.9704 20.1991 15.067C20.4325 15.1637 20.6319 15.3274 20.7723 15.5374C20.9126 15.7474 20.9875 15.9943 20.9875 16.2469C20.9875 16.5856 20.853 16.9104 20.6135 17.1499C20.374 17.3894 20.0491 17.524 19.7104 17.524ZM23.5417 13.6927H22.5455C22.1864 13.2977 21.7488 12.982 21.2605 12.766C20.7723 12.55 20.2443 12.4384 19.7104 12.4384C19.1765 12.4384 18.6485 12.55 18.1603 12.766C17.6721 12.982 17.2344 13.2977 16.8753 13.6927H9.77471C9.41562 13.2977 8.97792 12.982 8.48969 12.766C8.00145 12.55 7.47347 12.4384 6.93959 12.4384C6.4057 12.4384 5.87772 12.55 5.38948 12.766C4.90125 12.982 4.46355 13.2977 4.10446 13.6927H3.10834V11.1386C3.10834 10.7999 3.24288 10.475 3.48238 10.2355C3.72188 9.99602 4.04671 9.86147 4.38542 9.86147H22.2646C22.6033 9.86147 22.9281 9.99602 23.1676 10.2355C23.4071 10.475 23.5417 10.7999 23.5417 11.1386V13.6927Z" fill="#ED017F"/>
</svg>
