<svg width="24" height="27" viewBox="0 0 24 27" fill="none" xmlns="http://www.w3.org/2000/svg">
<path d="M22.5417 8.39179L14.8792 1.67434C14.1767 1.04607 13.2674 0.69873 12.325 0.69873C11.3826 0.69873 10.4732 1.04607 9.77082 1.67434L2.10832 8.39179C1.70268 8.75458 1.37898 9.19962 1.15877 9.69729C0.938568 10.1949 0.826911 10.7338 0.831237 11.278V22.4397C0.831237 23.4558 1.23489 24.4303 1.95338 25.1488C2.67188 25.8673 3.64638 26.271 4.66249 26.271H19.9875C21.0036 26.271 21.9781 25.8673 22.6966 25.1488C23.4151 24.4303 23.8187 23.4558 23.8187 22.4397V11.2652C23.8212 10.7232 23.7087 10.1868 23.4886 9.69146C23.2684 9.19613 22.9457 8.75315 22.5417 8.39179V8.39179ZM14.8792 23.7168H9.77082V17.3314C9.77082 16.9927 9.90537 16.6678 10.1449 16.4283C10.3844 16.1888 10.7092 16.0543 11.0479 16.0543H13.6021C13.9408 16.0543 14.2656 16.1888 14.5051 16.4283C14.7446 16.6678 14.8792 16.9927 14.8792 17.3314V23.7168ZM21.2646 22.4397C21.2646 22.7784 21.13 23.1032 20.8905 23.3427C20.651 23.5822 20.3262 23.7168 19.9875 23.7168H17.4333V17.3314C17.4333 16.3153 17.0297 15.3408 16.3112 14.6223C15.5927 13.9038 14.6182 13.5001 13.6021 13.5001H11.0479C10.0318 13.5001 9.0573 13.9038 8.3388 14.6223C7.6203 15.3408 7.21665 16.3153 7.21665 17.3314V23.7168H4.66249C4.32378 23.7168 3.99895 23.5822 3.75945 23.3427C3.51995 23.1032 3.3854 22.7784 3.3854 22.4397V11.2652C3.38563 11.0839 3.42447 10.9047 3.49934 10.7396C3.57421 10.5744 3.68339 10.4271 3.81961 10.3074L11.4821 3.60273C11.7152 3.39799 12.0148 3.28508 12.325 3.28508C12.6352 3.28508 12.9348 3.39799 13.1679 3.60273L20.8304 10.3074C20.9666 10.4271 21.0758 10.5744 21.1506 10.7396C21.2255 10.9047 21.2643 11.0839 21.2646 11.2652V22.4397Z" fill="#ED017F"/>
</svg>
