<svg width="38" height="38" viewBox="0 0 38 38" fill="none" xmlns="http://www.w3.org/2000/svg">
<path d="M28.0105 23.042L24.2704 26.481C22.3473 28.1574 20.0878 29.4032 17.6436 30.1345L18.636 34.7644C18.6867 35.0008 18.7923 35.222 18.9442 35.4101C19.0961 35.5981 19.2902 35.7479 19.5106 35.8471C19.7311 35.9464 19.9718 35.9925 20.2133 35.9816C20.4548 35.9707 20.6904 35.9031 20.9011 35.7844L26.9217 32.3887C27.7691 31.8738 28.431 31.1031 28.812 30.1877C29.193 29.2723 29.2733 28.2595 29.0415 27.2955L28.0105 23.042ZM11.8678 14.0294L15.0879 10.2063L11.0721 9.23739C10.0959 8.89696 9.02939 8.92132 8.06968 9.30597C7.10997 9.69061 6.32187 10.4096 5.85095 11.33L2.45899 17.3424C2.34014 17.553 2.27251 17.7886 2.26155 18.0301C2.25059 18.2717 2.29662 18.5125 2.39591 18.7329C2.4952 18.9534 2.64498 19.1475 2.83313 19.2994C3.02128 19.4513 3.24253 19.5568 3.47899 19.6074L8.21615 20.6229C9.0015 18.2122 10.241 15.9741 11.8678 14.0294V14.0294ZM26.4645 14.0917C26.9219 14.0917 27.369 13.9561 27.7492 13.702C28.1295 13.4479 28.4259 13.0867 28.601 12.6642C28.776 12.2416 28.8218 11.7766 28.7326 11.328C28.6433 10.8795 28.4231 10.4674 28.0997 10.144C27.7763 9.8206 27.3642 9.60036 26.9156 9.51113C26.4671 9.4219 26.0021 9.4677 25.5795 9.64272C25.157 9.81775 24.7958 10.1142 24.5417 10.4944C24.2876 10.8747 24.152 11.3218 24.152 11.7792C24.1522 12.3924 24.3959 12.9805 24.8296 13.4141C25.2632 13.8478 25.8512 14.0915 26.4645 14.0917V14.0917Z" fill="#ED017F"/>
<path d="M35.51 3.67891C35.4404 3.41486 35.302 3.17399 35.1089 2.98091C34.9159 2.78782 34.675 2.64944 34.4109 2.57987C31.2484 1.75781 27.918 1.84596 24.8034 2.83417C21.6888 3.82239 18.9168 5.67045 16.8067 8.16543L11.8678 14.0295C9.40055 16.9723 7.83536 20.5648 7.36027 24.3755C7.3298 24.6097 7.35353 24.8478 7.42961 25.0713C7.5057 25.2949 7.63212 25.498 7.79912 25.665L12.5784 30.4443C12.7215 30.5875 12.8915 30.7011 13.0785 30.7786C13.2655 30.8561 13.466 30.896 13.6684 30.896C13.7128 30.896 13.7572 30.8938 13.8024 30.89C17.6716 30.5703 21.3383 29.0259 24.2703 26.481L29.9176 21.2885C32.4214 19.1839 34.2762 16.4117 35.2662 13.2943C36.2562 10.1769 36.3408 6.84247 35.51 3.67891V3.67891ZM26.4645 14.0917C26.0071 14.0917 25.56 13.956 25.1797 13.7019C24.7994 13.4478 24.503 13.0867 24.328 12.6641C24.153 12.2416 24.1072 11.7766 24.1964 11.328C24.2856 10.8794 24.5059 10.4674 24.8293 10.144C25.1527 9.82058 25.5647 9.60033 26.0133 9.5111C26.4619 9.42188 26.9269 9.46767 27.3494 9.6427C27.772 9.81773 28.1331 10.1141 28.3872 10.4944C28.6413 10.8747 28.777 11.3218 28.777 11.7792C28.7767 12.3924 28.533 12.9805 28.0994 13.4141C27.6658 13.8477 27.0777 14.0914 26.4645 14.0917V14.0917Z" fill="#F899CC"/>
</svg>
